<svg width="123" height="32" viewBox="0 0 123 32" fill="none"
    xmlns="http://www.w3.org/2000/svg">
    <path d="M118 0H31V32H118C120.761 32 123 29.7614 123 27V5C123 2.23858 120.761 0 118 0Z" fill="#0F1418"/>
    <path d="M5 0.5H30.5V31.5H5C2.51472 31.5 0.5 29.4853 0.5 27V5C0.5 2.51472 2.51472 0.5 5 0.5Z" fill="white" stroke="#151A1E"/>
    <path d="M20.0688 18.3892C20.0688 19.3132 20.3317 19.6817 21.0192 19.6817C22.5515 19.6817 23.5272 17.7292 23.5272 14.482C23.5272 9.51885 19.9104 7.14285 15.3949 7.14285C10.7496 7.14285 6.52451 10.258 6.52451 16.1452C6.52451 21.7684 10.2205 24.8308 15.8965 24.8308C17.8237 24.8308 19.1173 24.6196 21.0962 23.9596L21.5208 25.7274C19.5672 26.3621 17.4794 26.5457 15.8701 26.5457C8.42531 26.5457 4.43781 22.4537 4.43781 16.1441C4.43781 9.78175 9.05891 5.45215 15.4213 5.45215C22.0477 5.45215 25.5578 9.41215 25.5578 14.2697C25.5578 18.3881 24.2653 21.5297 20.1997 21.5297C18.3506 21.5297 17.1373 20.7905 16.9789 19.1526C16.5037 20.9742 15.2365 21.5297 13.5194 21.5297C11.2226 21.5297 9.29541 19.7598 9.29541 16.1969C9.29541 12.6065 10.9861 10.3889 14.0221 10.3889C15.6325 10.3889 16.6357 11.0225 17.0823 12.0257L17.849 10.6265H20.0666V18.3892H20.0688V18.3892ZM16.8227 14.9044C16.8227 13.4535 15.7392 12.8452 14.8416 12.8452C13.8648 12.8452 12.7835 13.6361 12.7835 15.9604C12.7835 17.8084 13.6019 18.838 14.8416 18.838C15.7128 18.838 16.8227 18.2836 16.8227 16.7524V14.9044Z" fill="#0288D1"/>
    <path d="M51.1381 22H44.8392V11.4971H50.8964V13.4233H47.205V15.7598H50.64V17.6787H47.205V20.0811H51.1381V22ZM64.9484 22H62.6413V17.7227C62.6413 16.6338 62.2409 16.0894 61.4401 16.0894C61.0593 16.0894 60.7492 16.2529 60.51 16.5801C60.2707 16.9072 60.1511 17.3149 60.1511 17.8032V22H57.8366V17.6787C57.8366 16.6191 57.4436 16.0894 56.6574 16.0894C56.2619 16.0894 55.9445 16.2456 55.7053 16.5581C55.4709 16.8706 55.3537 17.2954 55.3537 17.8325V22H53.0393V14.5H55.3537V15.6719H55.383C55.6223 15.2715 55.9567 14.9468 56.3864 14.6978C56.821 14.4438 57.2946 14.3169 57.8073 14.3169C58.8669 14.3169 59.592 14.7832 59.9826 15.7158C60.5539 14.7832 61.3937 14.3169 62.5021 14.3169C64.133 14.3169 64.9484 15.3228 64.9484 17.3345V22ZM73.1997 22H71.0098V20.9233H70.9805C70.4776 21.7632 69.7329 22.1831 68.7466 22.1831C68.0191 22.1831 67.4453 21.978 67.0254 21.5679C66.6104 21.1528 66.4029 20.6011 66.4029 19.9126C66.4029 18.4575 67.2647 17.6177 68.9883 17.3931L71.0244 17.1221C71.0244 16.3018 70.5801 15.8916 69.6914 15.8916C68.7979 15.8916 67.9483 16.1577 67.1426 16.6899V14.9468C67.4649 14.7808 67.9043 14.6343 68.461 14.5073C69.0225 14.3804 69.5327 14.3169 69.9917 14.3169C72.1304 14.3169 73.1997 15.3838 73.1997 17.5176V22ZM71.0244 18.9531V18.4478L69.6621 18.6235C68.9102 18.7212 68.5342 19.0605 68.5342 19.6416C68.5342 19.9053 68.6245 20.1226 68.8052 20.2935C68.9907 20.4595 69.2398 20.5425 69.5523 20.5425C69.9868 20.5425 70.3408 20.3936 70.6143 20.0957C70.8877 19.793 71.0244 19.4121 71.0244 18.9531ZM76.3827 13.3135C75.992 13.3135 75.6722 13.1987 75.4232 12.9692C75.1742 12.7349 75.0496 12.4492 75.0496 12.1123C75.0496 11.7656 75.1742 11.4824 75.4232 11.2627C75.6722 11.043 75.992 10.9331 76.3827 10.9331C76.7782 10.9331 77.098 11.043 77.3421 11.2627C77.5912 11.4824 77.7157 11.7656 77.7157 12.1123C77.7157 12.4639 77.5912 12.752 77.3421 12.9766C77.098 13.2012 76.7782 13.3135 76.3827 13.3135ZM77.5252 22H75.2108V14.5H77.5252V22ZM81.9679 22H79.6535V10.8965H81.9679V22ZM100.88 " fill="white"/>
    <path d="M118 0H5C2.23858 0 0 2.23858 0 5V27C0 29.7614 2.23858 32 5 32H118C120.761 32 123 29.7614 123 27V5C123 2.23858 120.761 0 118 0Z" fill="url(#paint0_linear)"/>
    <defs>
        <linearGradient id="paint0_linear" x1="0" y1="0" x2="0" y2="32" gradientUnits="userSpaceOnUse">
            <stop stop-color="#BBBBBB" stop-opacity="0.1"/>
            <stop offset="1" stop-opacity="0.1"/>
        </linearGradient>
    </defs>
</svg>
